<svg width="36" height="36" viewBox="0 0 36 36" fill="none" xmlns="http://www.w3.org/2000/svg">
<path d="M35.6 18C35.6 27.7202 27.7202 35.6 18 35.6C8.27979 35.6 0.4 27.7202 0.4 18C0.4 8.27979 8.27979 0.4 18 0.4C27.7202 0.4 35.6 8.27979 35.6 18Z" stroke="#E5E5E5" stroke-width="0.8"/>
<path d="M18 24.6667H25.5" stroke="#03A9F4" stroke-width="0.6" stroke-linecap="round" stroke-linejoin="round"/>
<path d="M21.75 10.9166C22.0815 10.5851 22.5312 10.3989 23 10.3989C23.2321 10.3989 23.462 10.4446 23.6765 10.5334C23.891 10.6223 24.0858 10.7525 24.25 10.9166C24.4142 11.0808 24.5444 11.2757 24.6332 11.4901C24.722 11.7046 24.7678 11.9345 24.7678 12.1666C24.7678 12.3988 24.722 12.6287 24.6332 12.8431C24.5444 13.0576 24.4142 13.2525 24.25 13.4166L13.8333 23.8333L10.5 24.6666L11.3333 21.3333L21.75 10.9166Z" stroke="#03A9F4" stroke-width="0.6" stroke-linecap="round" stroke-linejoin="round"/>
</svg>
