<svg width="24" height="24" viewBox="0 0 24 24" fill="none" xmlns="http://www.w3.org/2000/svg">
<path d="M11.0866 4.04906C11.439 3.25857 12.561 3.25857 12.9134 4.04906L14.5278 7.67082C14.6731 7.99685 14.9812 8.22069 15.3362 8.25816L19.2796 8.67436C20.1402 8.7652 20.487 9.8323 19.844 10.4117L16.8984 13.0663C16.6333 13.3052 16.5156 13.6674 16.5896 14.0166L17.4124 17.8956C17.5919 18.7422 16.6842 19.4017 15.9345 18.9693L12.4996 16.9882C12.1904 16.8098 11.8096 16.8098 11.5004 16.9882L8.06548 18.9693C7.31578 19.4017 6.40805 18.7422 6.58762 17.8956L7.41036 14.0166C7.48443 13.6674 7.36674 13.3052 7.10158 13.0663L4.15596 10.4117C3.51304 9.8323 3.85977 8.7652 4.72045 8.67436L8.66383 8.25816C9.01881 8.22069 9.3269 7.99685 9.47223 7.67082L11.0866 4.04906Z" fill="#E0BE35"/>
</svg>
