<svg width="32" height="32" viewBox="0 0 32 32" fill="none" xmlns="http://www.w3.org/2000/svg">
<rect width="32" height="32" rx="16" fill="#03A9F4"/>
<mask id="path-2-inside-1_2_127" fill="white">
<path fill-rule="evenodd" clip-rule="evenodd" d="M7 16.32C8.69809 13.0088 12.0912 10.75 16 10.75C19.9088 10.75 23.3019 13.0088 25 16.32C23.3019 19.6312 19.9088 21.89 16 21.89C12.0912 21.89 8.69808 19.6312 7 16.32Z"/>
</mask>
<path d="M7 16.32L5.66528 15.6355L5.31426 16.32L5.66528 17.0045L7 16.32ZM25 16.32L26.3347 17.0045L26.6857 16.32L26.3347 15.6355L25 16.32ZM8.33472 17.0045C9.79223 14.1624 12.6884 12.25 16 12.25V9.25C11.494 9.25 7.60394 11.8552 5.66528 15.6355L8.33472 17.0045ZM16 12.25C19.3116 12.25 22.2078 14.1624 23.6653 17.0045L26.3347 15.6355C24.3961 11.8552 20.506 9.25 16 9.25V12.25ZM23.6653 15.6355C22.2078 18.4776 19.3116 20.39 16 20.39V23.39C20.506 23.39 24.3961 20.7848 26.3347 17.0045L23.6653 15.6355ZM16 20.39C12.6884 20.39 9.79223 18.4776 8.33472 15.6355L5.66528 17.0045C7.60394 20.7848 11.494 23.39 16 23.39V20.39Z" fill="white" mask="url(#path-2-inside-1_2_127)"/>
<circle cx="16" cy="16.3193" r="2.25" stroke="white" stroke-width="1.5"/>
<rect x="22.5992" y="8.14645" width="2" height="21.5" rx="1" transform="rotate(45 22.5992 8.14645)" fill="white" stroke="#03A9F4" stroke-width="0.5"/>
</svg>
