<svg width="36" height="36" viewBox="0 0 36 36" fill="none" xmlns="http://www.w3.org/2000/svg">
<path d="M35.6 18C35.6 27.7202 27.7202 35.6 18 35.6C8.27979 35.6 0.4 27.7202 0.4 18C0.4 8.27979 8.27979 0.4 18 0.4C27.7202 0.4 35.6 8.27979 35.6 18Z" stroke="#E6E6E6" stroke-width="0.8"/>
<path d="M17.3606 10.1712C17.6073 9.61786 18.3927 9.61786 18.6394 10.1712L20.2538 13.793C20.4427 14.2168 20.8432 14.5078 21.3047 14.5565L25.2481 14.9727C25.8505 15.0363 26.0932 15.7833 25.6432 16.1888L22.6976 18.8434C22.3529 19.1541 22.1999 19.6249 22.2962 20.0788L23.1189 23.9578C23.2446 24.5505 22.6092 25.0121 22.0844 24.7094L18.6495 22.7283C18.2475 22.4964 17.7525 22.4964 17.3505 22.7283L13.9156 24.7094C13.3908 25.0121 12.7554 24.5505 12.8811 23.9578L13.7038 20.0788C13.8001 19.6249 13.6471 19.1541 13.3024 18.8434L10.3568 16.1888C9.90676 15.7833 10.1495 15.0363 10.7519 14.9727L14.6953 14.5565C15.1568 14.5078 15.5573 14.2168 15.7462 13.793L17.3606 10.1712Z" stroke="#E0BE35" stroke-width="0.6"/>
</svg>
